<svg width="41" height="41" viewBox="0 0 41 41" fill="none" xmlns="http://www.w3.org/2000/svg">
<path d="M13.7654 40.249C17.5604 40.249 20.6404 37.2624 20.6404 33.5824V26.9157H13.7654C9.97038 26.9157 6.89038 29.9024 6.89038 33.5824C6.89038 37.2624 9.97038 40.249 13.7654 40.249Z" fill="#0ACF83"/>
<path d="M6.89038 20.249C6.89038 16.569 9.97038 13.5823 13.7654 13.5823H20.6404V26.9157H13.7654C9.97038 26.9157 6.89038 23.929 6.89038 20.249Z" fill="#A259FF"/>
<path d="M6.89038 6.91569C6.89038 3.23569 9.97038 0.249023 13.7654 0.249023H20.6404V13.5824H13.7654C9.97038 13.5824 6.89038 10.5957 6.89038 6.91569Z" fill="#F24E1E"/>
<path d="M20.6404 0.249023H27.5154C31.3104 0.249023 34.3904 3.23569 34.3904 6.91569C34.3904 10.5957 31.3104 13.5824 27.5154 13.5824H20.6404V0.249023Z" fill="#FF7262"/>
<path d="M34.3904 20.249C34.3904 23.929 31.3104 26.9157 27.5154 26.9157C23.7204 26.9157 20.6404 23.929 20.6404 20.249C20.6404 16.569 23.7204 13.5823 27.5154 13.5823C31.3104 13.5823 34.3904 16.569 34.3904 20.249Z" fill="#1ABCFE"/>
</svg>
