<svg width="40" height="41" viewBox="0 0 40 41" fill="none" xmlns="http://www.w3.org/2000/svg">
<path d="M27.865 14.8953H27.8525C27.8443 14.8934 27.8369 14.889 27.8312 14.8828C27.8208 14.8715 27.8132 14.8579 27.8088 14.8432C27.8045 14.8284 27.8036 14.8129 27.8063 14.7978L28.5125 10.484L31.8263 13.794L28.375 15.249C28.3655 15.2529 28.3553 15.255 28.345 15.2553H28.3375C28.3375 15.2553 28.3288 15.2553 28.32 15.2415C28.1906 15.0995 28.0364 14.9821 27.865 14.8953ZM32.67 14.6328L36.2125 18.1715C36.9487 18.9065 37.3162 19.274 37.4513 19.699C37.4712 19.7614 37.4874 19.8248 37.5 19.889L29.035 16.309H29.0212C28.9875 16.2953 28.9475 16.279 28.9475 16.244C28.9475 16.209 28.9875 16.1928 29.0212 16.179H29.0312L32.67 14.6328ZM37.355 21.0253C37.0328 21.5076 36.6487 21.9455 36.2125 22.3278L32.22 26.3153L27.055 25.2403H27.0275C26.9825 25.2328 26.9325 25.2253 26.9325 25.1828C26.9125 24.97 26.8491 24.7635 26.7461 24.5763C26.6431 24.389 26.5028 24.2248 26.3337 24.094C26.3125 24.0728 26.3188 24.0403 26.3237 24.009V23.9965L27.2962 18.039V18.019C27.2962 17.974 27.31 17.9203 27.3525 17.9203C27.5606 17.8944 27.7616 17.8273 27.9435 17.723C28.1255 17.6187 28.2849 17.4793 28.4125 17.3128C28.4189 17.3027 28.4274 17.2941 28.4375 17.2878C28.4692 17.2795 28.5028 17.284 28.5312 17.3003L37.355 21.0253ZM31.3013 27.2328L24.735 33.7928L25.86 26.8915V26.8565C25.8687 26.834 25.8925 26.8253 25.9163 26.8153H25.9275C26.1734 26.7105 26.391 26.549 26.5625 26.344C26.5828 26.3164 26.6119 26.2965 26.645 26.2878C26.6537 26.2865 26.6625 26.2865 26.6712 26.2878L31.3013 27.2328ZM23.345 35.1803L22.605 35.9203L14.4225 24.1065L14.4125 24.094C14.3976 24.0795 14.3891 24.0598 14.3888 24.039C14.3916 24.0241 14.3985 24.0103 14.4088 23.999L14.4175 23.9878C14.4425 23.9515 14.4637 23.9153 14.4875 23.8753L14.5062 23.844C14.5165 23.8218 14.533 23.8032 14.5537 23.7903C14.5752 23.7827 14.5986 23.7827 14.62 23.7903L23.6862 25.6578C23.7117 25.6619 23.7357 25.6722 23.7562 25.6878C23.7658 25.6987 23.7718 25.7122 23.7737 25.7265V25.744C23.839 25.9796 23.9573 26.1972 24.1196 26.3801C24.2818 26.5629 24.4838 26.7062 24.71 26.799C24.735 26.8115 24.7237 26.8403 24.71 26.8703C24.7043 26.8836 24.6997 26.8974 24.6963 26.9115C24.5875 27.6028 23.6075 33.5703 23.345 35.1803ZM21.7987 36.724C21.4655 37.1273 21.0443 37.4489 20.5675 37.664C20.2088 37.7778 19.8237 37.7778 19.465 37.664C19.0387 37.529 18.6712 37.164 17.935 36.4265L9.7175 28.2178L11.8638 24.8915C11.8726 24.8749 11.885 24.8604 11.9 24.849C11.9131 24.8428 11.9274 24.8396 11.9419 24.8396C11.9564 24.8396 11.9707 24.8428 11.9837 24.849C12.1947 24.914 12.4143 24.9465 12.635 24.9453C12.9251 24.9436 13.2121 24.8855 13.48 24.774C13.4903 24.7676 13.5022 24.7642 13.5144 24.7642C13.5265 24.7642 13.5384 24.7676 13.5487 24.774C13.5582 24.7834 13.5669 24.7935 13.575 24.804L21.7987 36.724ZM8.92375 27.4265L7.04 25.5428L10.7638 23.9565C10.7737 23.9548 10.7838 23.9548 10.7938 23.9565C10.825 23.9565 10.8425 23.9878 10.86 24.0165L10.8725 24.0365C10.9075 24.0903 10.9438 24.1378 10.9788 24.184L10.99 24.199C11 24.214 10.99 24.229 10.9825 24.2453L8.92375 27.4265ZM6.20625 24.7103L3.82125 22.3278C3.415 21.9228 3.12125 21.629 2.9175 21.3753L10.1675 22.8753H10.195C10.24 22.8828 10.29 22.8903 10.29 22.9328C10.29 22.9753 10.2363 22.999 10.19 23.0178L10.1688 23.0265L6.20625 24.7103ZM2.5 20.1503C2.50883 19.9966 2.53653 19.8446 2.5825 19.6978C2.7175 19.2728 3.0825 18.9053 3.82125 18.1703L6.875 15.124C7.375 15.8615 10.7013 20.6565 11.0888 21.2115L11.1012 21.2278C11.1262 21.2615 11.1538 21.2978 11.1263 21.3253C10.9869 21.4706 10.8656 21.6321 10.765 21.8065C10.7547 21.8286 10.7393 21.8479 10.72 21.8628C10.7076 21.8678 10.6937 21.8678 10.6812 21.8628L2.5 20.1503ZM7.69 14.3065L11.7938 10.2065C12.18 10.3753 13.5838 10.9678 14.8388 11.4978C15.79 11.899 16.6562 12.2653 16.9275 12.3815C16.941 12.3849 16.9537 12.3912 16.9647 12.3998C16.9756 12.4084 16.9847 12.4192 16.9913 12.4315C16.9969 12.4494 16.9969 12.4686 16.9913 12.4865C16.9639 12.616 16.9501 12.7479 16.95 12.8803C16.9502 13.3569 17.1368 13.8145 17.47 14.1553C17.4975 14.1815 17.47 14.2215 17.4462 14.2565L17.4337 14.2753L13.2675 20.7228C13.2581 20.7405 13.2448 20.7558 13.2288 20.7678C13.2163 20.773 13.2029 20.7757 13.1894 20.7757C13.1758 20.7757 13.1625 20.773 13.15 20.7678C12.9867 20.725 12.8188 20.7023 12.65 20.7003C12.4899 20.7055 12.3305 20.7248 12.1737 20.7578C12.1662 20.7615 12.1578 20.7635 12.1494 20.7635C12.1409 20.7635 12.1326 20.7615 12.125 20.7578C12.1087 20.7448 12.0948 20.7292 12.0837 20.7115L7.69 14.3065ZM12.625 9.37402L17.9387 4.06652C18.675 3.33152 19.0425 2.96402 19.4688 2.82902C19.8274 2.71528 20.2126 2.71528 20.5713 2.82902C20.9975 2.96402 21.365 3.32902 22.1012 4.06652L23.2525 5.21652L19.4712 11.0678C19.4615 11.0845 19.4488 11.0993 19.4338 11.1115C19.4208 11.1174 19.4067 11.1204 19.3925 11.1204C19.3783 11.1204 19.3642 11.1174 19.3512 11.1115C19.1648 11.0576 18.9716 11.0303 18.7775 11.0303C18.3478 11.0339 17.9318 11.1818 17.5962 11.4503C17.5712 11.474 17.535 11.459 17.5037 11.4503C17.01 11.2315 13.1713 9.61027 12.625 9.37402ZM24.0537 6.01777L27.5438 9.50402L26.7038 14.704V14.7178C26.7033 14.7298 26.7008 14.7416 26.6963 14.7528C26.6875 14.7715 26.67 14.7753 26.6512 14.779H26.6313C26.4586 14.8335 26.2961 14.9158 26.15 15.0228L26.1325 15.039C26.1282 15.0452 26.1226 15.0504 26.1161 15.0543C26.1097 15.0581 26.1025 15.0606 26.095 15.0615C26.0818 15.0626 26.0685 15.0605 26.0562 15.0553L20.74 12.799H20.7288C20.695 12.7853 20.655 12.769 20.655 12.734C20.6249 12.4455 20.5323 12.167 20.3837 11.9178L20.3725 11.899C20.3463 11.8565 20.3187 11.8128 20.34 11.774L24.0537 6.01777ZM20.4588 13.874L25.4425 15.9828C25.4714 15.9907 25.496 16.0095 25.5112 16.0353C25.5162 16.052 25.5162 16.0698 25.5112 16.0865C25.4951 16.1655 25.4863 16.2459 25.485 16.3265V16.4665C25.485 16.5003 25.4487 16.5153 25.4163 16.529H25.405C24.6162 16.8653 14.32 21.2503 14.305 21.2503C14.2965 21.2513 14.2878 21.2505 14.2796 21.2479C14.2714 21.2453 14.2639 21.241 14.2575 21.2353C14.23 21.209 14.2575 21.169 14.2812 21.134L14.2938 21.1153L18.39 14.7815L18.3975 14.7703C18.4213 14.7315 18.4487 14.689 18.4925 14.689L18.5337 14.6953C18.6188 14.7099 18.7049 14.7183 18.7913 14.7203C19.0963 14.7214 19.3968 14.6473 19.6663 14.5045C19.9359 14.3617 20.166 14.1546 20.3362 13.9015C20.3442 13.8878 20.3543 13.8756 20.3662 13.8653C20.3812 13.8589 20.3975 13.8564 20.4136 13.8579C20.4298 13.8594 20.4453 13.865 20.4588 13.874ZM14.75 22.2628L25.9713 17.4828C25.9834 17.4839 25.9946 17.4897 26.0025 17.499C26.0537 17.549 26.108 17.5958 26.165 17.639L26.19 17.6553C26.2125 17.669 26.2362 17.6828 26.2375 17.7065V17.729L25.275 23.624V23.6478C25.275 23.694 25.2625 23.7465 25.2188 23.7465C24.9634 23.7642 24.7161 23.8438 24.4983 23.9783C24.2805 24.1129 24.0988 24.2985 23.9688 24.519V24.5265C23.9586 24.5481 23.9426 24.5663 23.9225 24.579C23.9017 24.5853 23.8795 24.5853 23.8587 24.579L14.91 22.7353C14.91 22.7353 14.76 22.264 14.75 22.2628Z" fill="url(#paint0_linear_835_1281)"/>
<defs>
<linearGradient id="paint0_linear_835_1281" x1="20" y1="2.74902" x2="20" y2="37.749" gradientUnits="userSpaceOnUse">
<stop stop-color="#21C6B7"/>
<stop offset="1" stop-color="#4C9BBF"/>
</linearGradient>
</defs>
</svg>
