<svg width="41" height="41" viewBox="0 0 41 41" fill="none" xmlns="http://www.w3.org/2000/svg">
<path d="M20.8586 40.1748C20.3084 40.1748 19.7949 40.0281 19.3181 39.7713L14.4396 36.8736C13.7061 36.4701 14.0729 36.3234 14.2929 36.2501C15.2832 35.92 15.4666 35.8466 16.4936 35.2596C16.6038 35.1863 16.7505 35.2229 16.8604 35.2963L20.6018 37.5338C20.7486 37.6072 20.932 37.6072 21.042 37.5338L35.6773 29.0609C35.824 28.9875 35.8974 28.8408 35.8974 28.6574V11.7479C35.8974 11.5645 35.824 11.4178 35.6773 11.3445L21.042 2.90805C20.8953 2.8347 20.7119 2.8347 20.6018 2.90805L5.96656 11.3446C5.81984 11.418 5.74649 11.6013 5.74649 11.7481V28.6574C5.74649 28.8041 5.81984 28.9875 5.96656 29.0609L9.96476 31.3716C12.1289 32.4719 13.4859 31.1882 13.4859 29.9045V13.215C13.4859 12.995 13.6694 12.7749 13.9261 12.7749H15.7969C16.0169 12.7749 16.237 12.9583 16.237 13.215V29.9043C16.237 32.802 14.6597 34.4892 11.9087 34.4892C11.0651 34.4892 10.4049 34.4892 8.53431 33.5723L4.68282 31.3716C3.72919 30.8213 3.14233 29.7943 3.14233 28.6939V11.7847C3.14233 10.6844 3.72919 9.6574 4.68282 9.10709L19.3181 0.634145C20.2351 0.12065 21.4821 0.12065 22.3991 0.634145L37.0344 9.10709C37.988 9.65726 38.5749 10.6842 38.5749 11.7847V28.6941C38.5749 29.7944 37.988 30.8214 37.0344 31.3716L22.3991 39.8448C21.9223 40.0649 21.3721 40.1749 20.8586 40.1749V40.1748ZM25.3702 28.5472C18.9512 28.5472 17.6308 25.613 17.6308 23.1187C17.6308 22.8986 17.8142 22.6786 18.0709 22.6786H19.9782C20.1983 22.6786 20.3818 22.8253 20.3818 23.0454C20.6752 24.9893 21.5188 25.9431 25.4068 25.9431C28.4879 25.9431 29.8085 25.2462 29.8085 23.5957C29.8085 22.6419 29.4417 21.945 24.6366 21.4681C20.6385 21.0646 18.1443 20.1843 18.1443 16.9933C18.1443 14.0221 20.6384 12.2615 24.82 12.2615C29.5149 12.2615 31.8258 13.8754 32.1192 17.3966C32.1192 17.5067 32.0825 17.6167 32.0092 17.7267C31.9358 17.8001 31.8258 17.8735 31.7158 17.8735H29.8085C29.625 17.8735 29.4417 17.7267 29.4049 17.5434C28.9648 15.526 27.8277 14.8658 24.82 14.8658C21.4456 14.8658 21.042 16.0395 21.042 16.9198C21.042 17.9836 21.5188 18.3136 26.067 18.9004C30.5787 19.4873 32.7061 20.331 32.7061 23.4855C32.6694 26.7133 30.0286 28.5472 25.3702 28.5472Z" fill="#539E43"/>
</svg>
