<svg width="41" height="41" viewBox="0 0 41 41" fill="none" xmlns="http://www.w3.org/2000/svg">
<path d="M19.0311 4.96189C19.0311 4.72677 19.1008 4.49692 19.2314 4.30142C19.3621 4.10591 19.5477 3.95354 19.765 3.86356C19.9822 3.77358 20.2212 3.75004 20.4518 3.79591C20.6824 3.84178 20.8943 3.955 21.0605 4.12127C21.2268 4.28753 21.34 4.49935 21.3859 4.72997C21.4318 4.96058 21.4082 5.19961 21.3182 5.41684C21.2283 5.63407 21.0759 5.81974 20.8804 5.95037C20.6849 6.081 20.455 6.15072 20.2199 6.15072C20.0637 6.15091 19.9091 6.12029 19.7647 6.06061C19.6204 6.00093 19.4893 5.91337 19.3789 5.80294C19.2684 5.69251 19.1809 5.56138 19.1212 5.41706C19.0615 5.27274 19.0309 5.11807 19.0311 4.96189ZM4.85087 15.7271C4.85087 15.4919 4.92059 15.2621 5.05122 15.0666C5.18185 14.8711 5.36752 14.7187 5.58475 14.6287C5.80198 14.5388 6.04101 14.5152 6.27162 14.5611C6.50223 14.607 6.71406 14.7202 6.88032 14.8864C7.04658 15.0527 7.15981 15.2645 7.20568 15.4951C7.25155 15.7258 7.22801 15.9648 7.13803 16.182C7.04805 16.3993 6.89567 16.5849 6.70017 16.7156C6.50467 16.8462 6.27482 16.9159 6.03969 16.9159C5.88358 16.9159 5.72899 16.8852 5.58475 16.8254C5.44052 16.7657 5.30946 16.6781 5.19907 16.5677C5.08867 16.4573 5.00111 16.3263 4.94136 16.182C4.88162 16.0378 4.85087 15.8832 4.85087 15.7271ZM33.2227 15.7828C33.2227 15.5477 33.2924 15.3178 33.4231 15.1223C33.5537 14.9268 33.7394 14.7744 33.9566 14.6845C34.1738 14.5945 34.4129 14.5709 34.6435 14.6168C34.8741 14.6627 35.0859 14.7759 35.2522 14.9422C35.4184 15.1084 35.5317 15.3203 35.5775 15.5509C35.6234 15.7815 35.5999 16.0205 35.5099 16.2377C35.4199 16.455 35.2675 16.6406 35.072 16.7713C34.8765 16.9019 34.6467 16.9716 34.4115 16.9716C34.2554 16.9718 34.1007 16.9412 33.9564 16.8815C33.8121 16.8218 33.6809 16.7343 33.5705 16.6239C33.4601 16.5134 33.3725 16.3823 33.3128 16.238C33.2531 16.0937 33.2225 15.939 33.2227 15.7828ZM8.28732 17.4117C8.54942 17.2948 8.75456 17.0788 8.85791 16.8111C8.96126 16.5433 8.95441 16.2456 8.83887 15.9828L8.31161 14.7897H10.3863V24.1418H6.19973C5.68298 22.3269 5.52189 20.4294 5.72534 18.5534L8.28732 17.4117ZM16.9663 17.6418V14.8855H21.9074C22.1632 14.8855 23.7092 15.1798 23.7092 16.3372C23.7092 17.2974 22.5233 17.6418 21.5473 17.6418H16.9663ZM10.2206 32.4836C10.2206 32.2484 10.2903 32.0186 10.421 31.8231C10.5516 31.6276 10.7373 31.4752 10.9545 31.3852C11.1717 31.2952 11.4107 31.2717 11.6414 31.3176C11.872 31.3634 12.0838 31.4767 12.2501 31.6429C12.4163 31.8092 12.5295 32.021 12.5754 32.2516C12.6213 32.4822 12.5977 32.7213 12.5078 32.9385C12.4178 33.1557 12.2654 33.3414 12.0699 33.472C11.8744 33.6027 11.6446 33.6724 11.4094 33.6724C11.2533 33.6726 11.0986 33.6419 10.9543 33.5823C10.8099 33.5226 10.6788 33.435 10.5684 33.3246C10.4579 33.2142 10.3704 33.083 10.3107 32.9387C10.251 32.7944 10.2204 32.6397 10.2206 32.4836ZM27.8401 32.5393C27.8401 32.3042 27.9098 32.0743 28.0405 31.8788C28.1711 31.6833 28.3568 31.5309 28.574 31.441C28.7912 31.351 29.0303 31.3274 29.2609 31.3733C29.4915 31.4192 29.7033 31.5324 29.8696 31.6987C30.0358 31.8649 30.1491 32.0767 30.1949 32.3074C30.2408 32.538 30.2173 32.777 30.1273 32.9942C30.0373 33.2115 29.8849 33.3971 29.6894 33.5278C29.4939 33.6584 29.2641 33.7281 29.029 33.7281C28.7137 33.7281 28.4113 33.6029 28.1883 33.3799C27.9654 33.157 27.8401 32.8546 27.8401 32.5393ZM28.2073 29.843C28.0681 29.8132 27.9244 29.8112 27.7843 29.837C27.6443 29.8629 27.5108 29.9161 27.3913 29.9936C27.2719 30.0711 27.1689 30.1714 27.0882 30.2887C27.0076 30.4061 26.9509 30.5382 26.9214 30.6775L26.3241 33.4623C24.4045 34.3316 22.32 34.7763 20.2128 34.7662C18.1056 34.7561 16.0254 34.2914 14.1143 33.4038L13.5185 30.6189C13.4581 30.338 13.2888 30.0926 13.0477 29.9364C12.8066 29.7802 12.5134 29.7261 12.2325 29.7858L9.77336 30.3145C9.31632 29.844 8.89146 29.3432 8.50166 28.8156H20.4671C20.6028 28.8156 20.6929 28.7913 20.6929 28.6727V24.4347C20.6929 24.3118 20.6028 24.2918 20.4671 24.2918H16.9663V21.6041H20.7514C21.3157 21.6097 21.8595 21.8157 22.2859 22.1853C22.7122 22.5549 22.9934 23.0639 23.0791 23.6216C23.2291 24.2118 23.5592 26.1322 23.785 26.7466C24.0093 27.4368 24.9281 28.8142 25.9026 28.8142H32.0796C31.6654 29.3695 31.2122 29.8948 30.7236 30.386L28.2073 29.843ZM34.8516 18.6677C34.9357 19.5125 34.9462 20.3631 34.8831 21.2097H33.3813C33.2313 21.2097 33.1698 21.3083 33.1698 21.4555V22.1456C33.1698 23.7688 32.2539 24.1232 31.4552 24.2132C30.6907 24.2989 29.8434 23.8931 29.7405 23.4259C29.6854 22.6166 29.4406 21.8317 29.0258 21.1347C28.611 20.4376 28.0379 19.848 27.3529 19.4136C28.8246 18.4791 30.3535 17.1002 30.3535 15.2541C30.3232 14.4698 30.0971 13.7055 29.6958 13.0309C29.2945 12.3563 28.7307 11.7928 28.0559 11.3919C27.1146 10.7822 26.0318 10.4258 24.9123 10.3573H9.37613C11.5237 7.95691 14.403 6.3317 17.5679 5.73349L19.3997 7.6539C19.4978 7.75696 19.6153 7.83968 19.7454 7.89732C19.8755 7.95496 20.0157 7.98641 20.1579 7.98986C20.3002 7.99331 20.4417 7.9687 20.5744 7.91743C20.7072 7.86616 20.8285 7.78923 20.9315 7.69106L22.9805 5.73063C25.0697 6.12259 27.0485 6.9647 28.7795 8.19845C30.5104 9.43221 31.952 11.028 33.0041 12.875L31.6009 16.0429C31.4858 16.3056 31.4791 16.6032 31.5824 16.8709C31.6858 17.1385 31.8906 17.3545 32.1525 17.4717L34.8516 18.6677ZM38.3495 18.7192L38.3024 18.229L39.747 16.8816C39.8017 16.8246 39.8447 16.7574 39.8734 16.6838C39.9021 16.6102 39.916 16.5317 39.9143 16.4527C39.9125 16.3737 39.8952 16.2958 39.8633 16.2235C39.8314 16.1512 39.7856 16.086 39.7284 16.0314C39.6778 15.9833 39.6193 15.9441 39.5555 15.9157L37.7151 15.2255L37.5722 14.7483L38.7239 13.1479C38.809 13.0131 38.8372 12.8501 38.8024 12.6945C38.7676 12.5389 38.6726 12.4035 38.5381 12.3178C38.4797 12.2811 38.4154 12.2545 38.3481 12.2392L36.4005 11.922L36.1662 11.4847L36.985 9.68863C37.0139 9.61545 37.0282 9.53729 37.0269 9.4586C37.0256 9.37992 37.0088 9.30226 36.9775 9.23006C36.9462 9.15787 36.9009 9.09256 36.8444 9.03786C36.7878 8.98317 36.721 8.94017 36.6477 8.91132C36.5812 8.88537 36.5106 8.87134 36.4391 8.86988L34.463 8.93847L34.1429 8.56124L34.5973 6.63654C34.6108 6.55867 34.6089 6.47888 34.5916 6.40175C34.5743 6.32463 34.542 6.25166 34.4965 6.18704C34.4509 6.12241 34.3931 6.06739 34.3263 6.02512C34.2596 5.98285 34.1851 5.95415 34.1072 5.94068C34.0391 5.92925 33.9695 5.92925 33.9014 5.94068L31.9753 6.39077L31.5952 6.07785L31.6652 4.10457C31.6634 4.02556 31.646 3.9477 31.614 3.87542C31.5821 3.80314 31.5362 3.73787 31.479 3.68333C31.4218 3.6288 31.3544 3.58606 31.2807 3.55757C31.207 3.52908 31.1284 3.5154 31.0494 3.5173C30.9804 3.51912 30.9123 3.53265 30.8479 3.5573L29.0518 4.37605L28.6146 4.14172L28.2974 2.19415C28.2622 2.03955 28.1674 1.90508 28.0336 1.81999C27.8998 1.7349 27.7379 1.70607 27.5829 1.73977C27.5156 1.7551 27.4514 1.78167 27.3929 1.81836L25.7911 2.97003L25.3153 2.82715L24.6251 0.979605C24.5607 0.83374 24.4409 0.719442 24.2922 0.661835C24.1435 0.604227 23.978 0.608026 23.8321 0.672396C23.7691 0.700855 23.7112 0.739472 23.6606 0.786706L22.3089 2.23273L21.8188 2.18558L20.7786 0.503788C20.7231 0.425065 20.6494 0.360833 20.5639 0.316499C20.4783 0.272164 20.3834 0.249023 20.2871 0.249023C20.1907 0.249023 20.0958 0.272164 20.0102 0.316499C19.9247 0.360833 19.8511 0.425065 19.7955 0.503788L18.7553 2.18558L18.2652 2.23273L16.9178 0.786706C16.8022 0.676856 16.6477 0.617406 16.4882 0.621425C16.3288 0.625444 16.1775 0.692603 16.0676 0.808139C16.0203 0.85865 15.9817 0.916577 15.9533 0.979605L15.2574 2.81857L14.7816 2.96146L13.1812 1.81836C13.0464 1.73329 12.8834 1.70507 12.7278 1.73988C12.5722 1.77469 12.4368 1.86969 12.3511 2.00411C12.3144 2.06259 12.2878 2.12684 12.2725 2.19415L11.9553 4.14172L11.518 4.37605L9.72049 3.5573C9.5721 3.49985 9.40699 3.50352 9.26131 3.56753C9.11562 3.63153 9.00124 3.75065 8.94318 3.89881C8.91853 3.9647 8.90501 4.03424 8.90317 4.10457L8.97176 6.08071L8.59168 6.39077L6.66697 5.93925C6.5891 5.9257 6.50932 5.92763 6.43219 5.94493C6.35506 5.96224 6.2821 5.99457 6.21747 6.04009C6.15284 6.0856 6.09782 6.14341 6.05555 6.2102C6.01328 6.277 5.98458 6.35147 5.97111 6.42935C5.95968 6.49746 5.95968 6.567 5.97111 6.63511L6.42264 8.56124L6.11114 8.9399L4.13643 8.87131C4.03997 8.87383 3.94553 8.89945 3.86104 8.94603C3.77654 8.99262 3.70446 9.05879 3.65084 9.13901C3.59722 9.21923 3.56364 9.31114 3.5529 9.40703C3.54217 9.50291 3.55461 9.59997 3.58917 9.69006L4.40791 11.4862L4.17358 11.9234L2.22601 12.2406C2.07121 12.2754 1.9365 12.3702 1.85135 12.504C1.7662 12.6379 1.73754 12.8001 1.77163 12.9551C1.78696 13.0224 1.81353 13.0866 1.85022 13.1451L3.0019 14.7454L2.85901 15.2227L1.01147 15.9128C0.8656 15.9773 0.751302 16.097 0.693695 16.2458C0.636088 16.3945 0.639887 16.56 0.704256 16.7059C0.732318 16.7699 0.771504 16.8284 0.819995 16.8788L2.26459 18.2262L2.21744 18.7163L0.535648 19.7565C0.456925 19.8121 0.392694 19.8857 0.348359 19.9712C0.304025 20.0568 0.280884 20.1517 0.280884 20.2481C0.280884 20.3444 0.304025 20.4393 0.348359 20.5249C0.392694 20.6104 0.456925 20.684 0.535648 20.7396L2.21744 21.7798L2.26459 22.2699L0.819995 23.6174C0.710145 23.733 0.650696 23.8875 0.654715 24.0469C0.658734 24.2063 0.725893 24.3576 0.841429 24.4675C0.89141 24.5148 0.948866 24.5534 1.01147 24.5818L2.85901 25.272L3.0019 25.7492L1.85022 27.3553C1.80797 27.4221 1.7793 27.4966 1.76584 27.5744C1.75239 27.6523 1.75441 27.7321 1.77179 27.8092C1.78917 27.8863 1.82158 27.9592 1.86715 28.0238C1.91273 28.0883 1.97058 28.1433 2.0374 28.1855C2.09588 28.2222 2.16013 28.2487 2.22744 28.2641L4.17501 28.5813L4.40934 29.0199L3.59059 30.8161C3.53316 30.9648 3.537 31.1303 3.60127 31.2762C3.66554 31.4222 3.78501 31.5367 3.93353 31.5948C3.99892 31.6194 4.06799 31.633 4.13786 31.6348L6.114 31.5662L6.42692 31.9463L5.97397 33.8724C5.94657 34.0291 5.9825 34.1903 6.07386 34.3205C6.16523 34.4507 6.30455 34.5393 6.46121 34.5669C6.53016 34.5797 6.60088 34.5797 6.66983 34.5669L8.59168 34.1111L8.97176 34.4225L8.90174 36.3973C8.90341 36.476 8.9206 36.5537 8.95234 36.6258C8.98407 36.6978 9.02971 36.763 9.08666 36.8174C9.1436 36.8718 9.21073 36.9145 9.28418 36.9429C9.35764 36.9713 9.43599 36.985 9.51473 36.9831C9.58467 36.982 9.65386 36.9684 9.71906 36.9431L11.5152 36.1243L11.9524 36.3587L12.2696 38.3048C12.3045 38.4597 12.3991 38.5945 12.5329 38.6799C12.6668 38.7653 12.8289 38.7943 12.9841 38.7606C13.0516 38.7459 13.1159 38.7193 13.1741 38.682L14.7744 37.5289L15.2517 37.6718L15.9418 39.5179C16.0069 39.6636 16.127 39.7776 16.2759 39.835C16.4248 39.8923 16.5904 39.8882 16.7363 39.8237C16.7989 39.7953 16.8563 39.7566 16.9063 39.7094L18.2538 38.2648L18.7439 38.3134L19.7841 39.9952C19.8766 40.1255 20.0171 40.2137 20.1746 40.2405C20.3322 40.2673 20.4939 40.2304 20.6243 40.1381C20.6798 40.099 20.7281 40.0507 20.7672 39.9952L21.8074 38.3134L22.2975 38.2648L23.6449 39.7094C23.7605 39.8193 23.915 39.8787 24.0745 39.8747C24.2339 39.8707 24.3852 39.8035 24.4951 39.688C24.5423 39.638 24.581 39.5805 24.6094 39.5179L25.2996 37.6718L25.7768 37.5289L27.3772 38.682C27.444 38.7243 27.5184 38.753 27.5963 38.7664C27.6742 38.7799 27.7539 38.7778 27.831 38.7605C27.9081 38.7431 27.9811 38.7107 28.0456 38.6651C28.1102 38.6195 28.1651 38.5617 28.2073 38.4949C28.244 38.4364 28.2706 38.3721 28.2859 38.3048L28.6031 36.3587L29.0404 36.1243L30.8365 36.9431C30.9849 37.0005 31.15 36.9969 31.2957 36.9329C31.4414 36.8689 31.5557 36.7497 31.6138 36.6016C31.6384 36.5362 31.652 36.4671 31.6538 36.3973L31.5852 34.4197L31.9639 34.1082L33.8886 34.5611C34.0452 34.5886 34.2064 34.5529 34.3368 34.4619C34.4672 34.3708 34.5562 34.2318 34.5844 34.0753C34.5959 34.0063 34.5959 33.9358 34.5844 33.8667L34.1429 31.9434L34.4544 31.5634L36.4306 31.6319C36.5899 31.6278 36.741 31.5607 36.8509 31.4452C36.9607 31.3297 37.0202 31.1754 37.0164 31.0161C37.0155 30.9466 37.0019 30.8778 36.9764 30.8132L36.1576 29.0171L36.392 28.5784L38.3395 28.2612C38.4944 28.2264 38.6292 28.1317 38.7146 27.9979C38.8 27.8641 38.829 27.7019 38.7953 27.5468C38.7798 27.4784 38.7527 27.4132 38.7153 27.3539L37.5637 25.7535L37.7065 25.2763L39.5541 24.5861C39.6263 24.5544 39.6915 24.5087 39.746 24.4517C39.8005 24.3947 39.8432 24.3275 39.8717 24.254C39.9003 24.1805 39.914 24.1021 39.9122 24.0232C39.9105 23.9444 39.8931 23.8667 39.8613 23.7945C39.8332 23.7305 39.794 23.672 39.7456 23.6216L38.301 22.2742L38.3481 21.7841L40.0299 20.7439C40.1086 20.6883 40.1729 20.6147 40.2172 20.5292C40.2615 20.4436 40.2847 20.3487 40.2847 20.2523C40.2847 20.156 40.2615 20.0611 40.2172 19.9755C40.1729 19.89 40.1086 19.8163 40.0299 19.7608L38.3495 18.7192Z" fill="url(#paint0_radial_835_1240)"/>
<defs>
<radialGradient id="paint0_radial_835_1240" cx="0" cy="0" r="1" gradientUnits="userSpaceOnUse" gradientTransform="translate(20.3038 20.7323) rotate(-30.0007) scale(20.001 12.0075)">
<stop stop-color="#7D7D7D"/>
<stop offset="0.267" stop-color="#7E7C7A"/>
<stop offset="0.45" stop-color="#817871"/>
<stop offset="0.608" stop-color="#867162"/>
<stop offset="0.753" stop-color="#8D684C"/>
<stop offset="0.886" stop-color="#965C30"/>
<stop offset="1" stop-color="#A04F12"/>
</radialGradient>
</defs>
</svg>
