<svg width="54" height="41" viewBox="0 0 54 41" fill="none" xmlns="http://www.w3.org/2000/svg">
<g clip-path="url(#clip0_835_1241)">
<path d="M46.5564 23.2728C44.701 23.2824 43.0883 23.7292 41.7381 24.3899C41.2424 23.4086 40.747 22.5344 40.6597 21.8932C40.5624 21.1453 40.446 20.6886 40.5624 19.7949C40.6791 18.9011 41.2037 17.6284 41.1939 17.5313C41.1843 17.4342 41.0772 16.9776 40.0087 16.968C38.9402 16.9582 38.0172 17.1719 37.9104 17.4536C37.8035 17.7353 37.5995 18.3765 37.4635 19.0369C37.2789 20.0086 35.3264 23.4765 34.2093 25.2932C33.8497 24.5842 33.5389 23.9624 33.4708 23.4669C33.3737 22.719 33.257 22.2624 33.3737 21.3686C33.4904 20.4749 34.0149 19.2024 34.0051 19.1051C33.9954 19.008 33.8885 18.5513 32.8199 18.5417C31.7512 18.5319 30.8283 18.7457 30.7216 19.0274C30.6147 19.3092 30.4981 19.9697 30.2747 20.6109C30.0512 21.2522 27.4574 27.0422 26.7774 28.538C26.5026 29.1434 26.2144 29.7427 25.9129 30.3353C25.9129 30.3353 25.9031 30.3644 25.8739 30.413C25.7792 30.5988 25.6821 30.7834 25.5827 30.9667V30.9763C25.4368 31.2388 25.2814 31.4815 25.2037 31.4815C25.1454 31.4815 25.0385 30.7822 25.2231 29.8301C25.6116 27.8192 26.5345 24.6911 26.5249 24.5842C26.5249 24.5259 26.6997 23.9819 25.9226 23.7001C25.1647 23.4184 24.8929 23.8847 24.8247 23.8847C24.7568 23.8847 24.7081 24.0499 24.7081 24.0499C24.7081 24.0499 25.5535 20.5332 23.0956 20.5332C21.5608 20.5332 19.4429 22.2138 18.3937 23.7292C17.201 24.3783 16.0093 25.0292 14.8187 25.6819C14.2458 26.0026 13.6531 26.3232 13.0993 26.6242C13.0604 26.5855 13.0216 26.5367 12.9826 26.498C10.0099 23.3213 4.51161 21.0772 4.74473 16.8126C4.83223 15.2582 5.3664 11.178 15.3045 6.22361C23.4841 2.19194 29.9931 3.30902 31.1199 5.78632C32.7324 9.32257 27.6324 15.8897 19.1806 16.8415C15.9554 17.2011 14.2649 15.9576 13.8376 15.4913C13.3908 15.0055 13.3226 14.9763 13.1574 15.0736C12.8856 15.2194 13.0604 15.6565 13.1574 15.909C13.4101 16.5694 14.4495 17.7353 16.2079 18.3086C17.7622 18.8136 21.5412 19.0955 26.1168 17.3274C31.2364 15.3455 35.2389 9.83736 34.0635 5.22298C32.8879 0.540483 25.1162 -1.0041 17.7622 1.60902C13.3908 3.16361 8.64994 5.61152 5.24015 8.79798C1.18911 12.5865 0.547857 15.8799 0.810149 17.2594C1.75265 22.1555 8.50432 25.3419 11.2049 27.7026C11.0689 27.7803 10.9424 27.8484 10.8358 27.9067C9.48536 28.5769 4.33661 31.2678 3.05432 34.1142C1.59723 37.3394 3.28765 39.6517 4.40473 39.9624C7.87286 40.9242 11.4381 39.1951 13.3518 36.3388C15.2656 33.4828 15.0324 29.7717 14.1485 28.0717C14.1387 28.0524 14.1291 28.0328 14.1095 28.0134C14.4593 27.8094 14.8187 27.5957 15.1685 27.3917C15.8114 27.0117 16.4624 26.6456 17.1212 26.2938C16.7908 27.1974 16.5479 28.2757 16.4314 29.8301C16.2856 31.6565 17.0335 34.0267 18.0147 34.9592C18.452 35.3676 18.9668 35.3772 19.2972 35.3772C20.4435 35.3772 20.9585 34.4251 21.5316 33.2982C22.231 31.9188 22.8624 30.3159 22.8624 30.3159C22.8624 30.3159 22.0756 34.6486 24.2129 34.6486C24.9899 34.6486 25.7768 33.6382 26.1266 33.1234V33.133C26.1266 33.133 26.146 33.1038 26.1849 33.0359C26.2627 32.9096 26.3112 32.8317 26.3112 32.8317V32.8126C26.622 32.2684 27.3216 31.0347 28.361 28.9849C29.7016 26.3426 30.9937 23.0396 30.9937 23.0396C30.9937 23.0396 31.1104 23.8459 31.5085 25.1865C31.7418 25.9734 32.2272 26.838 32.616 27.6734C32.3052 28.1107 32.1108 28.3534 32.1108 28.3534L32.1206 28.3632C31.8679 28.6934 31.596 29.0528 31.2947 29.4028C30.2358 30.6655 28.9731 32.1132 28.7981 32.5307C28.5939 33.0261 28.6426 33.3857 29.0314 33.6772C29.3131 33.8909 29.8181 33.9199 30.3331 33.8909C31.2852 33.8228 31.9554 33.5896 32.2856 33.444C32.8006 33.2594 33.4029 32.9776 33.9662 32.5599C35.0058 31.7924 35.637 30.6947 35.5789 29.2474C35.5497 28.4507 35.2874 27.654 34.9668 26.9059C35.0641 26.7701 35.1514 26.634 35.2487 26.498C36.8904 24.0984 38.1631 21.4657 38.1631 21.4657C38.1631 21.4657 38.2797 22.2719 38.6779 23.6128C38.8722 24.2928 39.2706 25.0311 39.6202 25.7499C38.0756 27.0032 37.1235 28.4603 36.7835 29.4124C36.1716 31.1805 36.6474 31.9769 37.551 32.1615C37.9589 32.249 38.5418 32.0547 38.9693 31.8701C39.5133 31.6953 40.1545 31.3942 40.7666 30.9471C41.8062 30.1799 42.8066 29.1111 42.7483 27.6638C42.7191 27.0032 42.5443 26.3522 42.3014 25.7207C43.6129 25.1769 45.3033 24.8757 47.4597 25.1282C52.0841 25.6722 52.9972 28.5574 52.8222 29.7719C52.6474 30.9861 51.676 31.6467 51.3556 31.8507C51.0347 32.0549 50.9281 32.1228 50.9572 32.2684C50.996 32.4821 51.1514 32.4726 51.4235 32.4336C51.8024 32.3657 53.8522 31.4524 53.9395 29.218C54.0854 26.3619 51.3652 23.2436 46.5564 23.2728ZM10.8843 35.2994C9.34932 36.9703 7.21223 37.6017 6.28932 37.0676C5.29848 36.4942 5.68702 34.0267 7.57161 32.2588C8.71786 31.1805 10.1945 30.1796 11.1758 29.5678C11.3991 29.4317 11.7295 29.2376 12.1279 28.9946C12.1958 28.9557 12.2347 28.9363 12.2347 28.9363L12.4679 28.7905C13.1574 31.3163 12.497 33.5411 10.8843 35.2994ZM22.0562 27.7026C21.5218 29.0044 20.4047 32.3365 19.7247 32.1519C19.1418 31.9965 18.7822 29.4707 19.6081 26.974C20.0258 25.7207 20.9097 24.2247 21.4247 23.6419C22.2602 22.7092 23.1831 22.3982 23.4064 22.7774C23.6883 23.2728 22.3864 26.8865 22.0562 27.7026ZM31.2754 32.113C31.0518 32.2297 30.8383 32.3074 30.741 32.249C30.6731 32.2101 30.8383 32.0547 30.8383 32.0547C30.8383 32.0547 31.9943 30.8113 32.4508 30.2478C32.7133 29.9176 33.0239 29.529 33.3543 29.0917V29.218C33.3543 30.7044 31.9164 31.7051 31.2752 32.113H31.2754ZM38.3864 30.4907C38.2212 30.374 38.2504 29.9855 38.8041 28.7711C39.0179 28.2951 39.5229 27.4986 40.3877 26.7311C40.4847 27.0419 40.5529 27.3432 40.5431 27.6249C40.5333 29.4999 39.1929 30.1992 38.3864 30.4907Z" fill="#CD6799"/>
</g>
<defs>
<clipPath id="clip0_835_1241">
<rect width="53.3375" height="40" fill="white" transform="translate(0.662476 0.249023)"/>
</clipPath>
</defs>
</svg>
