<svg width="41" height="41" viewBox="0 0 41 41" fill="none" xmlns="http://www.w3.org/2000/svg">
<path d="M38.8667 4.46157L30.6303 0.496206C30.1652 0.271937 29.6418 0.197929 29.1327 0.284439C28.6236 0.370949 28.1541 0.613693 27.7891 0.979021L0.827222 25.5597C0.500095 25.8565 0.304278 26.2712 0.282847 26.7124C0.261416 27.1536 0.416127 27.5852 0.712946 27.9124C0.748657 27.9509 0.784368 27.9881 0.822936 28.0224L3.02417 30.0222C3.31181 30.284 3.68205 30.4367 4.0706 30.454C4.45915 30.4712 4.84146 30.3518 5.15113 30.1165L37.6268 5.49005C37.8721 5.30391 38.1645 5.18994 38.4711 5.16096C38.7776 5.13198 39.0862 5.18915 39.362 5.32603C39.6379 5.4629 39.87 5.67406 40.0323 5.93571C40.1947 6.19737 40.2808 6.49915 40.2809 6.80708V6.71137C40.2809 6.24127 40.1481 5.78073 39.8979 5.38272C39.6478 4.98472 39.2903 4.66542 38.8667 4.46157Z" fill="#0065A9"/>
<path d="M38.8667 35.8018L30.6303 39.7686C30.165 39.9922 29.6418 40.0659 29.1329 39.9794C28.6239 39.8929 28.1544 39.6505 27.7891 39.2857L0.827222 14.7036C0.500095 14.4068 0.304278 13.9922 0.282847 13.551C0.261416 13.1098 0.416127 12.6781 0.712946 12.351C0.748657 12.3124 0.784368 12.2753 0.822936 12.241L3.02417 10.2412C3.3121 9.97827 3.68319 9.82483 4.0727 9.8076C4.4622 9.79037 4.8454 9.91045 5.15541 10.1469L37.6268 34.7733C37.8721 34.9594 38.1645 35.0734 38.4711 35.1024C38.7776 35.1313 39.0862 35.0742 39.362 34.9373C39.6379 34.8004 39.87 34.5893 40.0323 34.3276C40.1947 34.066 40.2808 33.7642 40.2809 33.4563V33.5591C40.2793 34.028 40.1459 34.4869 39.8958 34.8835C39.6458 35.2801 39.2891 35.5983 38.8667 35.8018Z" fill="#007ACC"/>
<path d="M30.6302 39.7686C30.1649 39.9922 29.6417 40.0659 29.1328 39.9794C28.6238 39.8929 28.1543 39.6505 27.789 39.2858C27.9942 39.4882 28.2545 39.6256 28.5374 39.6808C28.8203 39.7359 29.1131 39.7064 29.3793 39.5958C29.6455 39.4852 29.8731 39.2985 30.0336 39.0591C30.1941 38.8198 30.2804 38.5384 30.2817 38.2501V2.01334C30.2819 1.72378 30.1962 1.44066 30.0354 1.19985C29.8746 0.959037 29.646 0.77137 29.3784 0.660619C29.1109 0.549868 28.8165 0.521018 28.5325 0.577721C28.2486 0.634425 27.9878 0.774132 27.7833 0.979144C28.1483 0.613949 28.6178 0.37119 29.1268 0.284439C29.6358 0.197689 30.1591 0.271233 30.6245 0.494901L38.8595 4.45455C39.2844 4.65739 39.6434 4.97625 39.8948 5.37433C40.1463 5.77241 40.2801 6.23349 40.2808 6.70435V33.5591C40.2809 34.0296 40.1481 34.4906 39.8976 34.8889C39.6472 35.2872 39.2893 35.6066 38.8652 35.8104L30.6302 39.7686Z" fill="#1F9CF0"/>
</svg>
